<?xml version="1.0"?>
<svg width="1000" height="1000" xmlns="http://www.w3.org/2000/svg" xmlns:svg="http://www.w3.org/2000/svg">
 <g class="layer">
  <title>Layer 2</title>
  <path d="m-0.04,996.21l0,-996.67l1003.33,0l0,996.67l-1003.33,0z" fill="#020002" id="svg_5"/>
 </g>
 <g class="layer">
  <title>Layer 1</title>
  <g id="svg_1">
   <path d="m472.3,569.65c-0.48,0.39 -0.77,0.63 -1.07,0.72c-0.48,0.14 -1.03,-0.08 -2.46,-0.67l-0.14,-0.06c-1.53,-0.61 -1.27,-0.76 1.47,-0.83c2.39,-0.06 3,0.18 2.21,0.83l0,0.01zm80.85,-0.59c-0.89,0.97 -4.33,1.4 -4.72,0.59c-0.27,-0.56 0.64,-0.92 2.28,-0.92c1.51,0 2.6,0.15 2.43,0.34l0.01,0z" fill="rgb(243,195,151)" id="svg_2"/>
   <path d="m430.91,694.65c1.38,-1.31 0.31,-1.77 -3.84,-1.66c-4.59,0.13 -5.17,0.39 -2.84,1.53c-6.52,-0.26 -24.33,3.4 -38.42,8.46c-22.32,8 -41.75,18.07 -68.77,35.61c-2.68,1.73 -5.07,3.29 -7.23,4.69c-15.6,10.16 -18.26,11.89 -19.32,10.68c-0.36,-0.43 -0.54,-1.19 -0.99,-2.09c-1.56,-3.11 -20.17,-70.74 -34.5,-125.34c-3.22,-12.32 -6.69,-25.35 -7.68,-28.94c-5.04,-18.2 -46.01,-175.45 -62.16,-238.57c-13.49,-52.7 -14.93,-60 -13.21,-66.6c1.14,-4.31 7.28,-8.48 12.5,-8.48c8.39,0 9.94,3.9 24.52,61.6c16.78,66.44 32.77,129.04 44.09,172.68c4.8,18.48 11.62,44.95 15.18,58.81c6.69,26.08 28.09,108.44 32.03,123.22c1.4,5.3 2.9,8.18 4.06,7.78c1,-0.34 8.65,-4.35 17.01,-8.9c28.7,-15.66 58.74,-25.11 89.09,-28.02l14.71,-1.42l-7.04,-2.64c-10.97,-4.08 -49.91,-3.94 -65.89,0.26c-12.7,3.33 -28.17,9.64 -37.31,15.2c-3.84,2.36 -5.04,2.45 -6.25,0.52c-1.56,-2.5 -5.49,-18.42 -26.18,-106.01c-6.91,-29.26 -18.13,-76.73 -24.94,-105.48c-43.39,-183.5 -50.9,-217.24 -50.13,-225.71c0.82,-8.96 4.06,-13.93 10.58,-16.17c2.74,-0.93 16.22,-2.26 29.93,-2.93l24.95,-1.21l4.59,19.86c2.53,10.92 4.15,19.86 3.61,19.86c-0.55,0 -4.93,-1.18 -9.71,-2.59c-11.42,-3.42 -34.89,-7.47 -35.77,-6.18c-0.37,0.56 2.77,15.56 7.02,33.36c4.24,17.79 11.52,48.72 16.2,68.76c4.67,20.03 9.38,39.76 10.45,43.87c1.09,4.11 5.61,23.43 10.04,42.93c4.44,19.51 13.08,56.9 19.21,83.08c6.12,26.17 14.46,61.88 18.51,79.35c4.4,18.97 5.59,27.14 8.93,30.05c2.47,2.15 6.11,1.44 13.03,0.07c1.81,-0.37 3.86,-0.77 6.17,-1.18c21.27,-3.76 53.59,-1.64 70.37,4.57c30.28,11.22 48.31,23.79 73.47,51.17l10.14,11.04l9.69,-10.71c24.94,-27.53 46.05,-42.47 73.03,-51.69c17.1,-5.85 50.19,-7.91 70.37,-4.39c1.67,0.28 3.2,0.56 4.59,0.81c9.57,1.71 13.07,2.36 14.85,0.09c1.28,-1.66 1.62,-4.84 2.71,-10.23c4.44,-22.21 30.4,-144.48 33.49,-157.75c1.67,-7.19 5.43,-24.42 8.36,-38.27c6.33,-29.96 26.31,-122.5 33.2,-153.7l4.88,-22.06l-9.78,1.27c-8.47,1.1 -16.33,2.86 -34.33,7.69l-4.08,1.1l2.98,-12.85c1.64,-7.08 3.92,-16.14 5.05,-20.13l2.09,-7.27l24.71,1.25c29.6,1.49 35.02,3.29 38.55,12.79c2.27,6.15 2.37,7.82 0.96,17.66c-0.86,6 -5.61,29.37 -10.55,51.95c-13.98,63.87 -32.04,148 -47.48,221.22c-4.22,20.03 -9.57,45.23 -11.9,56.01c-2.32,10.77 -7.2,33.45 -10.85,50.4c-8.14,37.8 -10.24,46.35 -11.63,47.6c-0.59,0.54 -4.15,-0.65 -7.89,-2.64c-9.69,-5.17 -24.15,-10.68 -37.52,-14.32c-15.21,-4.16 -51.28,-4.65 -64.61,-0.88l-9.6,2.71l20.47,2.39c33.72,3.9 54.09,10.08 85.21,25.82c9.43,4.76 18.09,9.09 19.26,9.64c1.7,0.77 3.07,-3.38 7.28,-22.09c10.77,-48.01 42.53,-183.36 59.04,-251.73c4.34,-17.96 8.38,-34.76 8.97,-37.33c6.5,-28.43 23.26,-97.93 24.27,-100.7c4.45,-12.13 15.54,-15.12 21.89,-5.87c2.18,3.19 3.73,7.45 3.73,10.25c0,2.64 -4.95,25.17 -11.02,50.07c-6.05,24.92 -13.55,55.79 -16.64,68.64c-3.11,12.85 -7.04,28.78 -8.71,35.47c-4.47,17.64 -30.36,125.49 -45.3,188.55c-20.67,87.33 -26.04,109.29 -27.07,110.84c-1.34,2 -3.4,0.92 -26.25,-13.78c-23.76,-15.27 -60.18,-32.81 -79.96,-38.49c-13.88,-3.99 -28.31,-6.48 -34.1,-6.18c0.87,-0.34 1.6,-0.79 2.02,-1.31c0.3,-0.37 -1.61,-0.68 -4.24,-0.68c-2.87,0 -4.45,0.75 -3.98,1.87c0.35,0.81 1.95,0.99 3.7,0.75c-0.16,0.16 -0.17,0.37 -0.07,0.61c0.46,1.06 2.82,2.5 5.26,3.15c15.43,4.21 77.42,37.59 123.79,66.65c9.65,6.03 18,10.98 18.58,10.98c0.59,0 2.89,-7.36 5.12,-16.33c2.23,-8.98 9.6,-38.18 16.34,-64.88c6.74,-26.69 14.9,-59.03 18.14,-71.87c3.22,-12.85 7.78,-30.89 10.11,-40.13c2.33,-9.24 8.37,-33.18 13.41,-53.2c5.04,-20.03 10.76,-42.71 12.72,-50.4c1.95,-7.69 9.03,-35.84 15.73,-62.55c25.24,-100.66 24.86,-99.43 31.89,-104.74c4.41,-3.35 16.5,-3.36 21.92,-0.07c2.28,1.4 5.8,5.36 7.78,8.81c3.13,5.43 3.51,7.34 2.9,14.71c-0.38,4.67 -1.87,12.68 -3.29,17.81c-2.6,9.4 -8.52,32.88 -38.83,154.02c-9.12,36.44 -18.48,73.83 -20.81,83.08c-4.34,17.24 -25.71,103.04 -36.01,144.68c-3.18,12.85 -6.85,27.53 -8.16,32.67c-1.3,5.13 -5.52,21.81 -9.38,37.06c-7.27,28.76 -10.12,35.4 -17.08,39.73c-2.27,1.4 -5.72,2.48 -7.68,2.39c-0.59,-0.02 -1.1,-0.04 -1.62,-0.07c-5.04,-0.47 -9.98,-3.61 -73.57,-43.63c-47.99,-30.19 -108.3,-66.54 -112.15,-67.59c-2.44,-0.68 -5.86,1.19 -12.15,6.64c-22.66,19.58 -45.3,17.51 -70.99,-6.53c-3.36,-3.15 -3.76,-2.95 -41.58,20.79c-21,13.18 -54.31,34.46 -74.02,47.29c-61.7,40.13 -63.72,41.35 -68.82,41.37c-6.12,0.02 -13.98,-5.74 -17.43,-12.82c-2.47,-5.04 -11.8,-37.64 -39.4,-137.44c-5.97,-21.56 -13.32,-48.03 -16.34,-58.81c-9.41,-33.57 -27.01,-96.88 -48.23,-173.62l-1.74,-6.28c-29.67,-107.29 -33.19,-120.02 -30.76,-129.5c0.37,-1.47 0.9,-2.86 1.47,-4.5c4.17,-11.76 23.15,-17.66 30.78,-9.53c2.25,2.39 5.14,9.99 8.77,23.02c21.97,79.01 41,147.73 42.87,154.8c6.58,24.77 78.9,282.87 80.11,285.91c0.27,0.65 12.15,-6.35 26.4,-15.56c32.91,-21.3 54.97,-33.99 88.21,-50.79c14.56,-7.34 26.88,-13.97 27.39,-14.71c0.09,-0.13 0.14,-0.24 0.17,-0.34c1.11,0.47 1.74,0.61 2.3,0.43c0.54,-0.19 1.04,-0.68 1.87,-1.46l0,0.04l0.02,0.01zm12.79,-64.2c0,1.66 -6.22,0.04 -12.79,-3.33c-8.71,-4.46 -26.52,-10.21 -37.01,-11.95c-7.01,-1.16 -8.09,-1.9 -9.81,-6.76c-1.75,-4.95 -31.8,-120.12 -42.04,-161.12c-2.32,-9.24 -9.67,-38.23 -16.35,-64.4c-6.68,-26.17 -12.75,-50.12 -13.49,-53.2c-0.73,-3.08 -2.85,-11.48 -4.72,-18.67c-3.53,-13.63 -19.82,-79.7 -25.43,-103.14l-3.24,-13.54l6,0.02c11.22,0.04 37.96,5.3 46.35,9.12c5.19,2.39 9.73,5.9 11.95,9.3c4.55,6.92 5.42,10.07 65.72,240.58c4.63,17.72 8.77,32.19 9.18,32.17c0.41,-0.02 1.99,-5.69 3.5,-12.6c3.06,-13.93 25.13,-105.72 31.75,-132.05c2.32,-9.24 6.38,-25.5 9.03,-36.12c2.65,-10.62 6.22,-21.74 7.92,-24.7c4.26,-7.37 11.3,-9.71 26.84,-8.87c15.14,0.83 18.4,3.15 23.11,16.61c1.59,4.56 9.25,33.47 17.01,64.27c7.77,30.8 14.72,58.09 15.46,60.67c0.73,2.58 5.03,19.66 9.53,37.98c4.52,18.31 8.74,34.69 9.39,36.4c1.07,2.78 1.28,2.73 2.06,-0.63c0.47,-2.05 2.23,-9.18 3.89,-15.87c1.67,-6.68 6.27,-25.57 10.21,-42.01c8.48,-35.29 42.15,-170.69 47.89,-192.66c6.49,-24.73 10.48,-29.57 28.79,-34.8c18.56,-5.3 44.14,-8.63 44.14,-5.71c0,1.59 -9.99,44.67 -19.22,82.89c-4.34,17.96 -10.38,43.17 -13.42,56.01c-3.03,12.85 -8.98,37.61 -13.21,55.07c-4.22,17.46 -10.92,45.18 -14.9,61.6c-3.97,16.43 -10.38,42.9 -14.25,58.81c-3.86,15.9 -9.93,41.11 -13.48,56.01c-3.54,14.9 -7.72,31.7 -9.27,37.33l-2.83,10.27l-8.25,1.38c-13.79,2.28 -22.99,5.04 -36.7,11c-7.2,3.13 -13.76,5.36 -14.57,4.97c-1.53,-0.75 -6.95,-21.34 -24.41,-92.95c-5.63,-23.11 -11.4,-46.63 -12.8,-52.28c-1.4,-5.64 -5.67,-23.22 -9.46,-39.07c-6.8,-28.34 -7.68,-31.4 -8.65,-29.85c-0.26,0.43 -4.63,19.67 -9.73,42.78c-5.09,23.11 -12.41,55.44 -16.28,71.87c-3.87,16.43 -8.67,37.02 -10.66,45.74c-1.99,8.72 -5.68,24.16 -8.19,34.28c-2.51,10.14 -4.57,18.75 -4.57,19.13l0,-0.04l0.01,0.03z" fill="rgb(252,106,25)" id="svg_3"/>
  </g>
  <rect fill="#020002" height="18" id="svg_6" width="14" x="466.89" y="570.67"/>
 </g>
</svg>